<svg xmlns="http://www.w3.org/2000/svg" width="4000" height="4000" viewBox="0 0 4000 4000">
  <rect width="4000" height="4000" fill="#080d1e"/>

  <!-- Ambient star dust: tiny scattered dots at varying opacities -->
  <!-- Very faint dust layer -->
  <circle cx="47" cy="83" r="0.6" fill="white" opacity="0.18"/>
  <circle cx="193" cy="210" r="0.5" fill="white" opacity="0.13"/>
  <circle cx="312" cy="57" r="0.7" fill="white" opacity="0.22"/>
  <circle cx="481" cy="142" r="0.5" fill="white" opacity="0.15"/>
  <circle cx="560" cy="301" r="0.6" fill="white" opacity="0.19"/>
  <circle cx="703" cy="88" r="0.8" fill="white" opacity="0.25"/>
  <circle cx="819" cy="234" r="0.5" fill="white" opacity="0.14"/>
  <circle cx="934" cy="72" r="0.6" fill="white" opacity="0.20"/>
  <circle cx="1082" cy="189" r="0.7" fill="white" opacity="0.17"/>
  <circle cx="1201" cy="43" r="0.5" fill="white" opacity="0.12"/>
  <circle cx="1345" cy="267" r="0.6" fill="white" opacity="0.21"/>
  <circle cx="1489" cy="118" r="0.8" fill="white" opacity="0.26"/>
  <circle cx="1623" cy="351" r="0.5" fill="white" opacity="0.16"/>
  <circle cx="1778" cy="92" r="0.6" fill="white" opacity="0.19"/>
  <circle cx="1892" cy="228" r="0.7" fill="white" opacity="0.23"/>
  <circle cx="2034" cy="61" r="0.5" fill="white" opacity="0.14"/>
  <circle cx="2187" cy="173" r="0.6" fill="white" opacity="0.18"/>
  <circle cx="2301" cy="309" r="0.8" fill="white" opacity="0.27"/>
  <circle cx="2456" cy="84" r="0.5" fill="white" opacity="0.15"/>
  <circle cx="2589" cy="241" r="0.6" fill="white" opacity="0.20"/>
  <circle cx="2734" cy="108" r="0.7" fill="white" opacity="0.22"/>
  <circle cx="2878" cy="367" r="0.5" fill="white" opacity="0.13"/>
  <circle cx="3012" cy="53" r="0.6" fill="white" opacity="0.19"/>
  <circle cx="3156" cy="198" r="0.8" fill="white" opacity="0.25"/>
  <circle cx="3289" cy="88" r="0.5" fill="white" opacity="0.16"/>
  <circle cx="3423" cy="274" r="0.6" fill="white" opacity="0.21"/>
  <circle cx="3567" cy="131" r="0.7" fill="white" opacity="0.18"/>
  <circle cx="3712" cy="312" r="0.5" fill="white" opacity="0.14"/>
  <circle cx="3845" cy="67" r="0.6" fill="white" opacity="0.20"/>
  <circle cx="3934" cy="221" r="0.8" fill="white" opacity="0.24"/>

  <!-- Row 2 -->
  <circle cx="89" cy="412" r="0.6" fill="white" opacity="0.17"/>
  <circle cx="224" cy="489" r="0.5" fill="white" opacity="0.13"/>
  <circle cx="378" cy="423" r="0.7" fill="white" opacity="0.21"/>
  <circle cx="512" cy="567" r="0.6" fill="white" opacity="0.19"/>
  <circle cx="645" cy="398" r="0.8" fill="white" opacity="0.28"/>
  <circle cx="789" cy="512" r="0.5" fill="white" opacity="0.14"/>
  <circle cx="912" cy="445" r="0.6" fill="white" opacity="0.18"/>
  <circle cx="1067" cy="531" r="0.7" fill="white" opacity="0.22"/>
  <circle cx="1189" cy="403" r="0.5" fill="white" opacity="0.16"/>
  <circle cx="1334" cy="578" r="0.6" fill="white" opacity="0.20"/>
  <circle cx="1478" cy="419" r="0.8" fill="white" opacity="0.26"/>
  <circle cx="1623" cy="534" r="0.5" fill="white" opacity="0.15"/>
  <circle cx="1756" cy="467" r="0.6" fill="white" opacity="0.19"/>
  <circle cx="1900" cy="553" r="0.7" fill="white" opacity="0.23"/>
  <circle cx="2023" cy="421" r="0.5" fill="white" opacity="0.14"/>
  <circle cx="2178" cy="568" r="0.6" fill="white" opacity="0.18"/>
  <circle cx="2312" cy="413" r="0.8" fill="white" opacity="0.27"/>
  <circle cx="2456" cy="489" r="0.5" fill="white" opacity="0.16"/>
  <circle cx="2589" cy="541" r="0.6" fill="white" opacity="0.20"/>
  <circle cx="2734" cy="398" r="0.7" fill="white" opacity="0.22"/>
  <circle cx="2867" cy="574" r="0.5" fill="white" opacity="0.13"/>
  <circle cx="3012" cy="431" r="0.6" fill="white" opacity="0.19"/>
  <circle cx="3145" cy="512" r="0.8" fill="white" opacity="0.25"/>
  <circle cx="3289" cy="447" r="0.5" fill="white" opacity="0.17"/>
  <circle cx="3423" cy="589" r="0.6" fill="white" opacity="0.21"/>
  <circle cx="3567" cy="423" r="0.7" fill="white" opacity="0.18"/>
  <circle cx="3701" cy="538" r="0.5" fill="white" opacity="0.14"/>
  <circle cx="3845" cy="412" r="0.6" fill="white" opacity="0.20"/>
  <circle cx="3978" cy="567" r="0.8" fill="white" opacity="0.24"/>

  <!-- Row 3 -->
  <circle cx="134" cy="712" r="0.6" fill="white" opacity="0.17"/>
  <circle cx="267" cy="789" r="0.5" fill="white" opacity="0.13"/>
  <circle cx="401" cy="643" r="0.7" fill="white" opacity="0.21"/>
  <circle cx="545" cy="778" r="0.6" fill="white" opacity="0.19"/>
  <circle cx="678" cy="698" r="0.8" fill="white" opacity="0.28"/>
  <circle cx="812" cy="734" r="0.5" fill="white" opacity="0.14"/>
  <circle cx="956" cy="689" r="0.6" fill="white" opacity="0.18"/>
  <circle cx="1090" cy="756" r="0.7" fill="white" opacity="0.22"/>
  <circle cx="1223" cy="612" r="0.5" fill="white" opacity="0.16"/>
  <circle cx="1367" cy="798" r="0.6" fill="white" opacity="0.20"/>
  <circle cx="1501" cy="663" r="0.8" fill="white" opacity="0.26"/>
  <circle cx="1645" cy="712" r="0.5" fill="white" opacity="0.15"/>
  <circle cx="1778" cy="798" r="0.6" fill="white" opacity="0.19"/>
  <circle cx="1912" cy="634" r="0.7" fill="white" opacity="0.23"/>
  <circle cx="2056" cy="789" r="0.5" fill="white" opacity="0.14"/>
  <circle cx="2189" cy="701" r="0.6" fill="white" opacity="0.18"/>
  <circle cx="2334" cy="645" r="0.8" fill="white" opacity="0.27"/>
  <circle cx="2467" cy="778" r="0.5" fill="white" opacity="0.16"/>
  <circle cx="2601" cy="712" r="0.6" fill="white" opacity="0.20"/>
  <circle cx="2745" cy="689" r="0.7" fill="white" opacity="0.22"/>
  <circle cx="2878" cy="756" r="0.5" fill="white" opacity="0.13"/>
  <circle cx="3023" cy="631" r="0.6" fill="white" opacity="0.19"/>
  <circle cx="3156" cy="789" r="0.8" fill="white" opacity="0.25"/>
  <circle cx="3290" cy="712" r="0.5" fill="white" opacity="0.17"/>
  <circle cx="3434" cy="645" r="0.6" fill="white" opacity="0.21"/>
  <circle cx="3567" cy="798" r="0.7" fill="white" opacity="0.18"/>
  <circle cx="3701" cy="667" r="0.5" fill="white" opacity="0.14"/>
  <circle cx="3845" cy="734" r="0.6" fill="white" opacity="0.20"/>
  <circle cx="3978" cy="689" r="0.8" fill="white" opacity="0.24"/>

  <!-- Row 4 -->
  <circle cx="78" cy="923" r="0.6" fill="white" opacity="0.16"/>
  <circle cx="212" cy="1012" r="0.5" fill="white" opacity="0.12"/>
  <circle cx="356" cy="934" r="0.7" fill="white" opacity="0.20"/>
  <circle cx="489" cy="1089" r="0.6" fill="white" opacity="0.18"/>
  <circle cx="623" cy="956" r="0.8" fill="white" opacity="0.27"/>
  <circle cx="767" cy="1023" r="0.5" fill="white" opacity="0.14"/>
  <circle cx="901" cy="912" r="0.6" fill="white" opacity="0.17"/>
  <circle cx="1045" cy="1067" r="0.7" fill="white" opacity="0.21"/>
  <circle cx="1178" cy="945" r="0.5" fill="white" opacity="0.15"/>
  <circle cx="1312" cy="1089" r="0.6" fill="white" opacity="0.19"/>
  <circle cx="1456" cy="934" r="0.8" fill="white" opacity="0.25"/>
  <circle cx="1589" cy="1012" r="0.5" fill="white" opacity="0.14"/>
  <circle cx="1734" cy="956" r="0.6" fill="white" opacity="0.18"/>
  <circle cx="1867" cy="1045" r="0.7" fill="white" opacity="0.22"/>
  <circle cx="2001" cy="912" r="0.5" fill="white" opacity="0.13"/>
  <circle cx="2145" cy="1089" r="0.6" fill="white" opacity="0.17"/>
  <circle cx="2278" cy="934" r="0.8" fill="white" opacity="0.26"/>
  <circle cx="2412" cy="1023" r="0.5" fill="white" opacity="0.15"/>
  <circle cx="2556" cy="967" r="0.6" fill="white" opacity="0.19"/>
  <circle cx="2689" cy="1067" r="0.7" fill="white" opacity="0.21"/>
  <circle cx="2823" cy="923" r="0.5" fill="white" opacity="0.12"/>
  <circle cx="2967" cy="1012" r="0.6" fill="white" opacity="0.18"/>
  <circle cx="3101" cy="945" r="0.8" fill="white" opacity="0.24"/>
  <circle cx="3234" cy="1089" r="0.5" fill="white" opacity="0.16"/>
  <circle cx="3378" cy="934" r="0.6" fill="white" opacity="0.20"/>
  <circle cx="3512" cy="1023" r="0.7" fill="white" opacity="0.17"/>
  <circle cx="3656" cy="956" r="0.5" fill="white" opacity="0.13"/>
  <circle cx="3789" cy="1067" r="0.6" fill="white" opacity="0.19"/>
  <circle cx="3934" cy="912" r="0.8" fill="white" opacity="0.23"/>

  <!-- Rows 5–10: more scattered dust across the canvas -->
  <circle cx="145" cy="1234" r="0.6" fill="white" opacity="0.16"/>
  <circle cx="289" cy="1389" r="0.5" fill="white" opacity="0.12"/>
  <circle cx="423" cy="1245" r="0.7" fill="white" opacity="0.20"/>
  <circle cx="567" cy="1412" r="0.6" fill="white" opacity="0.17"/>
  <circle cx="712" cy="1289" r="0.8" fill="white" opacity="0.26"/>
  <circle cx="845" cy="1356" r="0.5" fill="white" opacity="0.13"/>
  <circle cx="989" cy="1223" r="0.6" fill="white" opacity="0.18"/>
  <circle cx="1134" cy="1378" r="0.7" fill="white" opacity="0.22"/>
  <circle cx="1267" cy="1256" r="0.5" fill="white" opacity="0.15"/>
  <circle cx="1401" cy="1412" r="0.6" fill="white" opacity="0.19"/>
  <circle cx="1545" cy="1267" r="0.8" fill="white" opacity="0.25"/>
  <circle cx="1678" cy="1334" r="0.5" fill="white" opacity="0.14"/>
  <circle cx="1823" cy="1223" r="0.6" fill="white" opacity="0.18"/>
  <circle cx="1956" cy="1389" r="0.7" fill="white" opacity="0.21"/>
  <circle cx="2101" cy="1256" r="0.5" fill="white" opacity="0.13"/>
  <circle cx="2234" cy="1378" r="0.6" fill="white" opacity="0.17"/>
  <circle cx="2378" cy="1245" r="0.8" fill="white" opacity="0.27"/>
  <circle cx="2512" cy="1389" r="0.5" fill="white" opacity="0.15"/>
  <circle cx="2656" cy="1267" r="0.6" fill="white" opacity="0.20"/>
  <circle cx="2789" cy="1356" r="0.7" fill="white" opacity="0.22"/>
  <circle cx="2923" cy="1223" r="0.5" fill="white" opacity="0.12"/>
  <circle cx="3067" cy="1412" r="0.6" fill="white" opacity="0.18"/>
  <circle cx="3201" cy="1267" r="0.8" fill="white" opacity="0.24"/>
  <circle cx="3345" cy="1356" r="0.5" fill="white" opacity="0.16"/>
  <circle cx="3478" cy="1234" r="0.6" fill="white" opacity="0.19"/>
  <circle cx="3623" cy="1389" r="0.7" fill="white" opacity="0.17"/>
  <circle cx="3756" cy="1256" r="0.5" fill="white" opacity="0.13"/>
  <circle cx="3889" cy="1378" r="0.6" fill="white" opacity="0.20"/>
  <circle cx="3978" cy="1234" r="0.8" fill="white" opacity="0.23"/>

  <circle cx="112" cy="1567" r="0.6" fill="white" opacity="0.15"/>
  <circle cx="256" cy="1645" r="0.5" fill="white" opacity="0.11"/>
  <circle cx="389" cy="1578" r="0.7" fill="white" opacity="0.19"/>
  <circle cx="534" cy="1712" r="0.6" fill="white" opacity="0.17"/>
  <circle cx="667" cy="1589" r="0.8" fill="white" opacity="0.25"/>
  <circle cx="812" cy="1678" r="0.5" fill="white" opacity="0.13"/>
  <circle cx="945" cy="1545" r="0.6" fill="white" opacity="0.17"/>
  <circle cx="1089" cy="1712" r="0.7" fill="white" opacity="0.21"/>
  <circle cx="1223" cy="1589" r="0.5" fill="white" opacity="0.14"/>
  <circle cx="1367" cy="1645" r="0.6" fill="white" opacity="0.18"/>
  <circle cx="1501" cy="1567" r="0.8" fill="white" opacity="0.24"/>
  <circle cx="1645" cy="1712" r="0.5" fill="white" opacity="0.13"/>
  <circle cx="1778" cy="1589" r="0.6" fill="white" opacity="0.17"/>
  <circle cx="1912" cy="1645" r="0.7" fill="white" opacity="0.20"/>
  <circle cx="2056" cy="1578" r="0.5" fill="white" opacity="0.12"/>
  <circle cx="2189" cy="1712" r="0.6" fill="white" opacity="0.16"/>
  <circle cx="2334" cy="1589" r="0.8" fill="white" opacity="0.26"/>
  <circle cx="2467" cy="1645" r="0.5" fill="white" opacity="0.14"/>
  <circle cx="2612" cy="1567" r="0.6" fill="white" opacity="0.19"/>
  <circle cx="2745" cy="1712" r="0.7" fill="white" opacity="0.21"/>
  <circle cx="2878" cy="1589" r="0.5" fill="white" opacity="0.12"/>
  <circle cx="3023" cy="1645" r="0.6" fill="white" opacity="0.17"/>
  <circle cx="3156" cy="1578" r="0.8" fill="white" opacity="0.23"/>
  <circle cx="3290" cy="1712" r="0.5" fill="white" opacity="0.15"/>
  <circle cx="3434" cy="1589" r="0.6" fill="white" opacity="0.18"/>
  <circle cx="3567" cy="1645" r="0.7" fill="white" opacity="0.16"/>
  <circle cx="3712" cy="1567" r="0.5" fill="white" opacity="0.12"/>
  <circle cx="3845" cy="1712" r="0.6" fill="white" opacity="0.19"/>
  <circle cx="3978" cy="1589" r="0.8" fill="white" opacity="0.22"/>

  <circle cx="89" cy="1889" r="0.6" fill="white" opacity="0.16"/>
  <circle cx="234" cy="1978" r="0.5" fill="white" opacity="0.12"/>
  <circle cx="367" cy="1834" r="0.7" fill="white" opacity="0.20"/>
  <circle cx="512" cy="1945" r="0.6" fill="white" opacity="0.18"/>
  <circle cx="645" cy="1878" r="0.8" fill="white" opacity="0.27"/>
  <circle cx="789" cy="1967" r="0.5" fill="white" opacity="0.14"/>
  <circle cx="912" cy="1823" r="0.6" fill="white" opacity="0.17"/>
  <circle cx="1067" cy="1978" r="0.7" fill="white" opacity="0.21"/>
  <circle cx="1201" cy="1856" r="0.5" fill="white" opacity="0.15"/>
  <circle cx="1345" cy="1945" r="0.6" fill="white" opacity="0.19"/>
  <circle cx="1478" cy="1889" r="0.8" fill="white" opacity="0.25"/>
  <circle cx="1623" cy="1978" r="0.5" fill="white" opacity="0.14"/>
  <circle cx="1756" cy="1834" r="0.6" fill="white" opacity="0.18"/>
  <circle cx="1900" cy="1967" r="0.7" fill="white" opacity="0.22"/>
  <circle cx="2034" cy="1878" r="0.5" fill="white" opacity="0.13"/>
  <circle cx="2178" cy="1945" r="0.6" fill="white" opacity="0.17"/>
  <circle cx="2312" cy="1823" r="0.8" fill="white" opacity="0.26"/>
  <circle cx="2456" cy="1978" r="0.5" fill="white" opacity="0.15"/>
  <circle cx="2589" cy="1856" r="0.6" fill="white" opacity="0.20"/>
  <circle cx="2734" cy="1945" r="0.7" fill="white" opacity="0.22"/>
  <circle cx="2867" cy="1878" r="0.5" fill="white" opacity="0.12"/>
  <circle cx="3012" cy="1967" r="0.6" fill="white" opacity="0.18"/>
  <circle cx="3145" cy="1834" r="0.8" fill="white" opacity="0.24"/>
  <circle cx="3290" cy="1945" r="0.5" fill="white" opacity="0.16"/>
  <circle cx="3434" cy="1878" r="0.6" fill="white" opacity="0.19"/>
  <circle cx="3567" cy="1967" r="0.7" fill="white" opacity="0.17"/>
  <circle cx="3712" cy="1834" r="0.5" fill="white" opacity="0.13"/>
  <circle cx="3845" cy="1945" r="0.6" fill="white" opacity="0.20"/>
  <circle cx="3978" cy="1889" r="0.8" fill="white" opacity="0.23"/>

  <!-- Mid-lower section -->
  <circle cx="145" cy="2234" r="0.6" fill="white" opacity="0.16"/>
  <circle cx="289" cy="2389" r="0.5" fill="white" opacity="0.12"/>
  <circle cx="423" cy="2145" r="0.7" fill="white" opacity="0.20"/>
  <circle cx="567" cy="2312" r="0.6" fill="white" opacity="0.17"/>
  <circle cx="712" cy="2189" r="0.8" fill="white" opacity="0.26"/>
  <circle cx="845" cy="2356" r="0.5" fill="white" opacity="0.13"/>
  <circle cx="989" cy="2223" r="0.6" fill="white" opacity="0.18"/>
  <circle cx="1134" cy="2378" r="0.7" fill="white" opacity="0.22"/>
  <circle cx="1267" cy="2256" r="0.5" fill="white" opacity="0.15"/>
  <circle cx="1401" cy="2312" r="0.6" fill="white" opacity="0.19"/>
  <circle cx="1545" cy="2167" r="0.8" fill="white" opacity="0.25"/>
  <circle cx="1678" cy="2389" r="0.5" fill="white" opacity="0.14"/>
  <circle cx="1823" cy="2223" r="0.6" fill="white" opacity="0.18"/>
  <circle cx="1956" cy="2356" r="0.7" fill="white" opacity="0.21"/>
  <circle cx="2101" cy="2189" r="0.5" fill="white" opacity="0.13"/>
  <circle cx="2234" cy="2378" r="0.6" fill="white" opacity="0.17"/>
  <circle cx="2378" cy="2245" r="0.8" fill="white" opacity="0.27"/>
  <circle cx="2512" cy="2389" r="0.5" fill="white" opacity="0.15"/>
  <circle cx="2656" cy="2167" r="0.6" fill="white" opacity="0.20"/>
  <circle cx="2789" cy="2356" r="0.7" fill="white" opacity="0.22"/>
  <circle cx="2923" cy="2223" r="0.5" fill="white" opacity="0.12"/>
  <circle cx="3067" cy="2389" r="0.6" fill="white" opacity="0.18"/>
  <circle cx="3201" cy="2167" r="0.8" fill="white" opacity="0.24"/>
  <circle cx="3345" cy="2312" r="0.5" fill="white" opacity="0.16"/>
  <circle cx="3478" cy="2234" r="0.6" fill="white" opacity="0.19"/>
  <circle cx="3623" cy="2378" r="0.7" fill="white" opacity="0.17"/>
  <circle cx="3756" cy="2256" r="0.5" fill="white" opacity="0.13"/>
  <circle cx="3889" cy="2312" r="0.6" fill="white" opacity="0.20"/>
  <circle cx="3978" cy="2167" r="0.8" fill="white" opacity="0.23"/>

  <circle cx="112" cy="2567" r="0.6" fill="white" opacity="0.15"/>
  <circle cx="256" cy="2745" r="0.5" fill="white" opacity="0.11"/>
  <circle cx="389" cy="2578" r="0.7" fill="white" opacity="0.19"/>
  <circle cx="534" cy="2712" r="0.6" fill="white" opacity="0.17"/>
  <circle cx="667" cy="2589" r="0.8" fill="white" opacity="0.25"/>
  <circle cx="812" cy="2678" r="0.5" fill="white" opacity="0.13"/>
  <circle cx="945" cy="2545" r="0.6" fill="white" opacity="0.17"/>
  <circle cx="1089" cy="2712" r="0.7" fill="white" opacity="0.21"/>
  <circle cx="1223" cy="2589" r="0.5" fill="white" opacity="0.14"/>
  <circle cx="1367" cy="2645" r="0.6" fill="white" opacity="0.18"/>
  <circle cx="1501" cy="2567" r="0.8" fill="white" opacity="0.24"/>
  <circle cx="1645" cy="2712" r="0.5" fill="white" opacity="0.13"/>
  <circle cx="1778" cy="2589" r="0.6" fill="white" opacity="0.17"/>
  <circle cx="1912" cy="2645" r="0.7" fill="white" opacity="0.20"/>
  <circle cx="2056" cy="2578" r="0.5" fill="white" opacity="0.12"/>
  <circle cx="2189" cy="2712" r="0.6" fill="white" opacity="0.16"/>
  <circle cx="2334" cy="2589" r="0.8" fill="white" opacity="0.26"/>
  <circle cx="2467" cy="2745" r="0.5" fill="white" opacity="0.14"/>
  <circle cx="2612" cy="2567" r="0.6" fill="white" opacity="0.19"/>
  <circle cx="2745" cy="2712" r="0.7" fill="white" opacity="0.21"/>
  <circle cx="2878" cy="2589" r="0.5" fill="white" opacity="0.12"/>
  <circle cx="3023" cy="2645" r="0.6" fill="white" opacity="0.17"/>
  <circle cx="3156" cy="2578" r="0.8" fill="white" opacity="0.23"/>
  <circle cx="3290" cy="2712" r="0.5" fill="white" opacity="0.15"/>
  <circle cx="3434" cy="2589" r="0.6" fill="white" opacity="0.18"/>
  <circle cx="3567" cy="2745" r="0.7" fill="white" opacity="0.16"/>
  <circle cx="3712" cy="2567" r="0.5" fill="white" opacity="0.12"/>
  <circle cx="3845" cy="2712" r="0.6" fill="white" opacity="0.19"/>
  <circle cx="3978" cy="2589" r="0.8" fill="white" opacity="0.22"/>

  <circle cx="89" cy="2889" r="0.6" fill="white" opacity="0.16"/>
  <circle cx="234" cy="3078" r="0.5" fill="white" opacity="0.12"/>
  <circle cx="367" cy="2934" r="0.7" fill="white" opacity="0.20"/>
  <circle cx="512" cy="3045" r="0.6" fill="white" opacity="0.18"/>
  <circle cx="645" cy="2978" r="0.8" fill="white" opacity="0.27"/>
  <circle cx="789" cy="3067" r="0.5" fill="white" opacity="0.14"/>
  <circle cx="912" cy="2923" r="0.6" fill="white" opacity="0.17"/>
  <circle cx="1067" cy="3078" r="0.7" fill="white" opacity="0.21"/>
  <circle cx="1201" cy="2956" r="0.5" fill="white" opacity="0.15"/>
  <circle cx="1345" cy="3045" r="0.6" fill="white" opacity="0.19"/>
  <circle cx="1478" cy="2889" r="0.8" fill="white" opacity="0.25"/>
  <circle cx="1623" cy="3078" r="0.5" fill="white" opacity="0.14"/>
  <circle cx="1756" cy="2934" r="0.6" fill="white" opacity="0.18"/>
  <circle cx="1900" cy="3067" r="0.7" fill="white" opacity="0.22"/>
  <circle cx="2034" cy="2978" r="0.5" fill="white" opacity="0.13"/>
  <circle cx="2178" cy="3045" r="0.6" fill="white" opacity="0.17"/>
  <circle cx="2312" cy="2923" r="0.8" fill="white" opacity="0.26"/>
  <circle cx="2456" cy="3078" r="0.5" fill="white" opacity="0.15"/>
  <circle cx="2589" cy="2956" r="0.6" fill="white" opacity="0.20"/>
  <circle cx="2734" cy="3045" r="0.7" fill="white" opacity="0.22"/>
  <circle cx="2867" cy="2978" r="0.5" fill="white" opacity="0.12"/>
  <circle cx="3012" cy="3067" r="0.6" fill="white" opacity="0.18"/>
  <circle cx="3145" cy="2934" r="0.8" fill="white" opacity="0.24"/>
  <circle cx="3290" cy="3045" r="0.5" fill="white" opacity="0.16"/>
  <circle cx="3434" cy="2978" r="0.6" fill="white" opacity="0.19"/>
  <circle cx="3567" cy="3067" r="0.7" fill="white" opacity="0.17"/>
  <circle cx="3712" cy="2934" r="0.5" fill="white" opacity="0.13"/>
  <circle cx="3845" cy="3045" r="0.6" fill="white" opacity="0.20"/>
  <circle cx="3978" cy="2889" r="0.8" fill="white" opacity="0.23"/>

  <!-- Lower section -->
  <circle cx="145" cy="3234" r="0.6" fill="white" opacity="0.16"/>
  <circle cx="289" cy="3389" r="0.5" fill="white" opacity="0.12"/>
  <circle cx="423" cy="3245" r="0.7" fill="white" opacity="0.20"/>
  <circle cx="567" cy="3412" r="0.6" fill="white" opacity="0.17"/>
  <circle cx="712" cy="3289" r="0.8" fill="white" opacity="0.26"/>
  <circle cx="845" cy="3356" r="0.5" fill="white" opacity="0.13"/>
  <circle cx="989" cy="3223" r="0.6" fill="white" opacity="0.18"/>
  <circle cx="1134" cy="3378" r="0.7" fill="white" opacity="0.22"/>
  <circle cx="1267" cy="3256" r="0.5" fill="white" opacity="0.15"/>
  <circle cx="1401" cy="3412" r="0.6" fill="white" opacity="0.19"/>
  <circle cx="1545" cy="3267" r="0.8" fill="white" opacity="0.25"/>
  <circle cx="1678" cy="3334" r="0.5" fill="white" opacity="0.14"/>
  <circle cx="1823" cy="3223" r="0.6" fill="white" opacity="0.18"/>
  <circle cx="1956" cy="3389" r="0.7" fill="white" opacity="0.21"/>
  <circle cx="2101" cy="3256" r="0.5" fill="white" opacity="0.13"/>
  <circle cx="2234" cy="3378" r="0.6" fill="white" opacity="0.17"/>
  <circle cx="2378" cy="3245" r="0.8" fill="white" opacity="0.27"/>
  <circle cx="2512" cy="3389" r="0.5" fill="white" opacity="0.15"/>
  <circle cx="2656" cy="3267" r="0.6" fill="white" opacity="0.20"/>
  <circle cx="2789" cy="3356" r="0.7" fill="white" opacity="0.22"/>
  <circle cx="2923" cy="3223" r="0.5" fill="white" opacity="0.12"/>
  <circle cx="3067" cy="3412" r="0.6" fill="white" opacity="0.18"/>
  <circle cx="3201" cy="3267" r="0.8" fill="white" opacity="0.24"/>
  <circle cx="3345" cy="3356" r="0.5" fill="white" opacity="0.16"/>
  <circle cx="3478" cy="3234" r="0.6" fill="white" opacity="0.19"/>
  <circle cx="3623" cy="3389" r="0.7" fill="white" opacity="0.17"/>
  <circle cx="3756" cy="3256" r="0.5" fill="white" opacity="0.13"/>
  <circle cx="3889" cy="3378" r="0.6" fill="white" opacity="0.20"/>
  <circle cx="3978" cy="3234" r="0.8" fill="white" opacity="0.23"/>

  <circle cx="112" cy="3567" r="0.6" fill="white" opacity="0.15"/>
  <circle cx="256" cy="3745" r="0.5" fill="white" opacity="0.11"/>
  <circle cx="389" cy="3578" r="0.7" fill="white" opacity="0.19"/>
  <circle cx="534" cy="3712" r="0.6" fill="white" opacity="0.17"/>
  <circle cx="667" cy="3589" r="0.8" fill="white" opacity="0.25"/>
  <circle cx="812" cy="3678" r="0.5" fill="white" opacity="0.13"/>
  <circle cx="945" cy="3545" r="0.6" fill="white" opacity="0.17"/>
  <circle cx="1089" cy="3712" r="0.7" fill="white" opacity="0.21"/>
  <circle cx="1223" cy="3589" r="0.5" fill="white" opacity="0.14"/>
  <circle cx="1367" cy="3845" r="0.6" fill="white" opacity="0.18"/>
  <circle cx="1501" cy="3667" r="0.8" fill="white" opacity="0.24"/>
  <circle cx="1645" cy="3812" r="0.5" fill="white" opacity="0.13"/>
  <circle cx="1778" cy="3589" r="0.6" fill="white" opacity="0.17"/>
  <circle cx="1912" cy="3745" r="0.7" fill="white" opacity="0.20"/>
  <circle cx="2056" cy="3578" r="0.5" fill="white" opacity="0.12"/>
  <circle cx="2189" cy="3812" r="0.6" fill="white" opacity="0.16"/>
  <circle cx="2334" cy="3589" r="0.8" fill="white" opacity="0.26"/>
  <circle cx="2467" cy="3745" r="0.5" fill="white" opacity="0.14"/>
  <circle cx="2612" cy="3667" r="0.6" fill="white" opacity="0.19"/>
  <circle cx="2745" cy="3812" r="0.7" fill="white" opacity="0.21"/>
  <circle cx="2878" cy="3589" r="0.5" fill="white" opacity="0.12"/>
  <circle cx="3023" cy="3745" r="0.6" fill="white" opacity="0.17"/>
  <circle cx="3156" cy="3578" r="0.8" fill="white" opacity="0.23"/>
  <circle cx="3290" cy="3812" r="0.5" fill="white" opacity="0.15"/>
  <circle cx="3434" cy="3589" r="0.6" fill="white" opacity="0.18"/>
  <circle cx="3567" cy="3745" r="0.7" fill="white" opacity="0.16"/>
  <circle cx="3712" cy="3667" r="0.5" fill="white" opacity="0.12"/>
  <circle cx="3845" cy="3812" r="0.6" fill="white" opacity="0.19"/>
  <circle cx="3978" cy="3589" r="0.8" fill="white" opacity="0.22"/>

  <circle cx="89" cy="3889" r="0.6" fill="white" opacity="0.15"/>
  <circle cx="234" cy="3978" r="0.5" fill="white" opacity="0.11"/>
  <circle cx="367" cy="3834" r="0.7" fill="white" opacity="0.19"/>
  <circle cx="512" cy="3945" r="0.6" fill="white" opacity="0.17"/>
  <circle cx="645" cy="3878" r="0.8" fill="white" opacity="0.24"/>
  <circle cx="789" cy="3967" r="0.5" fill="white" opacity="0.13"/>
  <circle cx="912" cy="3823" r="0.6" fill="white" opacity="0.16"/>
  <circle cx="1067" cy="3978" r="0.7" fill="white" opacity="0.20"/>
  <circle cx="1201" cy="3856" r="0.5" fill="white" opacity="0.14"/>
  <circle cx="1345" cy="3945" r="0.6" fill="white" opacity="0.18"/>
  <circle cx="1478" cy="3889" r="0.8" fill="white" opacity="0.24"/>
  <circle cx="1623" cy="3978" r="0.5" fill="white" opacity="0.13"/>
  <circle cx="1756" cy="3834" r="0.6" fill="white" opacity="0.17"/>
  <circle cx="1900" cy="3967" r="0.7" fill="white" opacity="0.21"/>
  <circle cx="2034" cy="3878" r="0.5" fill="white" opacity="0.12"/>
  <circle cx="2178" cy="3945" r="0.6" fill="white" opacity="0.16"/>
  <circle cx="2312" cy="3823" r="0.8" fill="white" opacity="0.25"/>
  <circle cx="2456" cy="3978" r="0.5" fill="white" opacity="0.14"/>
  <circle cx="2589" cy="3856" r="0.6" fill="white" opacity="0.19"/>
  <circle cx="2734" cy="3945" r="0.7" fill="white" opacity="0.21"/>
  <circle cx="2867" cy="3878" r="0.5" fill="white" opacity="0.11"/>
  <circle cx="3012" cy="3967" r="0.6" fill="white" opacity="0.17"/>
  <circle cx="3145" cy="3834" r="0.8" fill="white" opacity="0.23"/>
  <circle cx="3290" cy="3945" r="0.5" fill="white" opacity="0.15"/>
  <circle cx="3434" cy="3878" r="0.6" fill="white" opacity="0.18"/>
  <circle cx="3567" cy="3967" r="0.7" fill="white" opacity="0.16"/>
  <circle cx="3712" cy="3834" r="0.5" fill="white" opacity="0.12"/>
  <circle cx="3845" cy="3945" r="0.6" fill="white" opacity="0.19"/>
  <circle cx="3978" cy="3889" r="0.8" fill="white" opacity="0.22"/>

  <!-- Slightly brighter accent stars — more visible, scattered -->
  <circle cx="334" cy="178" r="1.2" fill="#d4e8ff" opacity="0.45"/>
  <circle cx="978" cy="534" r="1.0" fill="#d4e8ff" opacity="0.40"/>
  <circle cx="1623" cy="289" r="1.3" fill="#e8f4ff" opacity="0.50"/>
  <circle cx="2289" cy="712" r="1.1" fill="#d4e8ff" opacity="0.42"/>
  <circle cx="2934" cy="178" r="1.2" fill="#e8f4ff" opacity="0.48"/>
  <circle cx="3578" cy="534" r="1.0" fill="#d4e8ff" opacity="0.38"/>
  <circle cx="456" cy="1234" r="1.3" fill="#e8f4ff" opacity="0.52"/>
  <circle cx="1101" cy="978" r="1.1" fill="#d4e8ff" opacity="0.41"/>
  <circle cx="1745" cy="1467" r="1.2" fill="#e8f4ff" opacity="0.47"/>
  <circle cx="2390" cy="1123" r="1.0" fill="#d4e8ff" opacity="0.39"/>
  <circle cx="3034" cy="1589" r="1.3" fill="#e8f4ff" opacity="0.51"/>
  <circle cx="3678" cy="1234" r="1.1" fill="#d4e8ff" opacity="0.43"/>
  <circle cx="234" cy="2078" r="1.2" fill="#e8f4ff" opacity="0.46"/>
  <circle cx="878" cy="2534" r="1.0" fill="#d4e8ff" opacity="0.38"/>
  <circle cx="1523" cy="2189" r="1.3" fill="#e8f4ff" opacity="0.50"/>
  <circle cx="2167" cy="2712" r="1.1" fill="#d4e8ff" opacity="0.42"/>
  <circle cx="2812" cy="2078" r="1.2" fill="#e8f4ff" opacity="0.48"/>
  <circle cx="3456" cy="2534" r="1.0" fill="#d4e8ff" opacity="0.40"/>
  <circle cx="678" cy="3023" r="1.3" fill="#e8f4ff" opacity="0.52"/>
  <circle cx="1323" cy="3578" r="1.1" fill="#d4e8ff" opacity="0.41"/>
  <circle cx="1967" cy="3134" r="1.2" fill="#e8f4ff" opacity="0.47"/>
  <circle cx="2612" cy="3689" r="1.0" fill="#d4e8ff" opacity="0.39"/>
  <circle cx="3256" cy="3245" r="1.3" fill="#e8f4ff" opacity="0.51"/>
  <circle cx="3901" cy="3800" r="1.1" fill="#d4e8ff" opacity="0.43"/>
</svg>
