<svg xmlns="http://www.w3.org/2000/svg" width="10000" height="10000" viewBox="0 0 10000 10000">
  <rect width="10000" height="10000" fill="#080d1e"/>

  <!-- Tiny dust stars: r=2.5, very low opacity -->
  <circle cx="118" cy="207" r="2.5" fill="white" opacity="0.18"/>
  <circle cx="483" cy="524" r="2.5" fill="white" opacity="0.15"/>
  <circle cx="780" cy="143" r="2.5" fill="white" opacity="0.20"/>
  <circle cx="1203" cy="472" r="2.5" fill="white" opacity="0.13"/>
  <circle cx="1401" cy="752" r="2.5" fill="white" opacity="0.17"/>
  <circle cx="1756" cy="220" r="2.5" fill="white" opacity="0.22"/>
  <circle cx="2047" cy="585" r="2.5" fill="white" opacity="0.16"/>
  <circle cx="2334" cy="180" r="2.5" fill="white" opacity="0.19"/>
  <circle cx="2703" cy="473" r="2.5" fill="white" opacity="0.14"/>
  <circle cx="3002" cy="668" r="2.5" fill="white" opacity="0.21"/>
  <circle cx="3345" cy="107" r="2.5" fill="white" opacity="0.18"/>
  <circle cx="3712" cy="391" r="2.5" fill="white" opacity="0.15"/>
  <circle cx="4023" cy="584" r="2.5" fill="white" opacity="0.20"/>
  <circle cx="4378" cy="217" r="2.5" fill="white" opacity="0.13"/>
  <circle cx="4701" cy="489" r="2.5" fill="white" opacity="0.17"/>
  <circle cx="5056" cy="130" r="2.5" fill="white" opacity="0.22"/>
  <circle cx="5389" cy="570" r="2.5" fill="white" opacity="0.16"/>
  <circle cx="5702" cy="283" r="2.5" fill="white" opacity="0.19"/>
  <circle cx="6067" cy="451" r="2.5" fill="white" opacity="0.14"/>
  <circle cx="6378" cy="672" r="2.5" fill="white" opacity="0.21"/>
  <circle cx="6723" cy="189" r="2.5" fill="white" opacity="0.18"/>
  <circle cx="7034" cy="524" r="2.5" fill="white" opacity="0.15"/>
  <circle cx="7389" cy="367" r="2.5" fill="white" opacity="0.20"/>
  <circle cx="7712" cy="143" r="2.5" fill="white" opacity="0.13"/>
  <circle cx="8023" cy="589" r="2.5" fill="white" opacity="0.17"/>
  <circle cx="8378" cy="278" r="2.5" fill="white" opacity="0.22"/>
  <circle cx="8701" cy="463" r="2.5" fill="white" opacity="0.16"/>
  <circle cx="9056" cy="712" r="2.5" fill="white" opacity="0.19"/>
  <circle cx="9389" cy="234" r="2.5" fill="white" opacity="0.14"/>
  <circle cx="9734" cy="512" r="2.5" fill="white" opacity="0.21"/>

  <circle cx="234" cy="1034" r="2.5" fill="white" opacity="0.17"/>
  <circle cx="589" cy="1278" r="2.5" fill="white" opacity="0.14"/>
  <circle cx="923" cy="1089" r="2.5" fill="white" opacity="0.20"/>
  <circle cx="1278" cy="1412" r="2.5" fill="white" opacity="0.13"/>
  <circle cx="1534" cy="1156" r="2.5" fill="white" opacity="0.18"/>
  <circle cx="1889" cy="1378" r="2.5" fill="white" opacity="0.15"/>
  <circle cx="2178" cy="1023" r="2.5" fill="white" opacity="0.21"/>
  <circle cx="2512" cy="1289" r="2.5" fill="white" opacity="0.16"/>
  <circle cx="2834" cy="1134" r="2.5" fill="white" opacity="0.19"/>
  <circle cx="3189" cy="1423" r="2.5" fill="white" opacity="0.14"/>
  <circle cx="3478" cy="1067" r="2.5" fill="white" opacity="0.22"/>
  <circle cx="3834" cy="1312" r="2.5" fill="white" opacity="0.17"/>
  <circle cx="4156" cy="1178" r="2.5" fill="white" opacity="0.15"/>
  <circle cx="4512" cy="1389" r="2.5" fill="white" opacity="0.20"/>
  <circle cx="4823" cy="1045" r="2.5" fill="white" opacity="0.13"/>
  <circle cx="5178" cy="1267" r="2.5" fill="white" opacity="0.18"/>
  <circle cx="5489" cy="1423" r="2.5" fill="white" opacity="0.15"/>
  <circle cx="5834" cy="1089" r="2.5" fill="white" opacity="0.21"/>
  <circle cx="6145" cy="1334" r="2.5" fill="white" opacity="0.16"/>
  <circle cx="6512" cy="1178" r="2.5" fill="white" opacity="0.19"/>
  <circle cx="6823" cy="1412" r="2.5" fill="white" opacity="0.14"/>
  <circle cx="7178" cy="1056" r="2.5" fill="white" opacity="0.22"/>
  <circle cx="7489" cy="1289" r="2.5" fill="white" opacity="0.17"/>
  <circle cx="7834" cy="1134" r="2.5" fill="white" opacity="0.15"/>
  <circle cx="8145" cy="1378" r="2.5" fill="white" opacity="0.20"/>
  <circle cx="8512" cy="1023" r="2.5" fill="white" opacity="0.13"/>
  <circle cx="8823" cy="1267" r="2.5" fill="white" opacity="0.18"/>
  <circle cx="9178" cy="1445" r="2.5" fill="white" opacity="0.15"/>
  <circle cx="9512" cy="1089" r="2.5" fill="white" opacity="0.21"/>
  <circle cx="9834" cy="1312" r="2.5" fill="white" opacity="0.16"/>

  <circle cx="167" cy="2078" r="2.5" fill="white" opacity="0.18"/>
  <circle cx="512" cy="2334" r="2.5" fill="white" opacity="0.14"/>
  <circle cx="856" cy="2089" r="2.5" fill="white" opacity="0.21"/>
  <circle cx="1212" cy="2412" r="2.5" fill="white" opacity="0.16"/>
  <circle cx="1467" cy="2156" r="2.5" fill="white" opacity="0.19"/>
  <circle cx="1823" cy="2389" r="2.5" fill="white" opacity="0.13"/>
  <circle cx="2112" cy="2034" r="2.5" fill="white" opacity="0.22"/>
  <circle cx="2456" cy="2278" r="2.5" fill="white" opacity="0.17"/>
  <circle cx="2778" cy="2123" r="2.5" fill="white" opacity="0.15"/>
  <circle cx="3134" cy="2412" r="2.5" fill="white" opacity="0.20"/>
  <circle cx="3412" cy="2067" r="2.5" fill="white" opacity="0.13"/>
  <circle cx="3778" cy="2312" r="2.5" fill="white" opacity="0.18"/>
  <circle cx="4089" cy="2178" r="2.5" fill="white" opacity="0.15"/>
  <circle cx="4445" cy="2389" r="2.5" fill="white" opacity="0.21"/>
  <circle cx="4756" cy="2045" r="2.5" fill="white" opacity="0.16"/>
  <circle cx="5112" cy="2267" r="2.5" fill="white" opacity="0.19"/>
  <circle cx="5423" cy="2434" r="2.5" fill="white" opacity="0.14"/>
  <circle cx="5778" cy="2089" r="2.5" fill="white" opacity="0.22"/>
  <circle cx="6089" cy="2345" r="2.5" fill="white" opacity="0.17"/>
  <circle cx="6445" cy="2178" r="2.5" fill="white" opacity="0.15"/>
  <circle cx="6756" cy="2412" r="2.5" fill="white" opacity="0.20"/>
  <circle cx="7112" cy="2056" r="2.5" fill="white" opacity="0.13"/>
  <circle cx="7423" cy="2289" r="2.5" fill="white" opacity="0.18"/>
  <circle cx="7778" cy="2134" r="2.5" fill="white" opacity="0.15"/>
  <circle cx="8089" cy="2378" r="2.5" fill="white" opacity="0.21"/>
  <circle cx="8445" cy="2023" r="2.5" fill="white" opacity="0.16"/>
  <circle cx="8756" cy="2267" r="2.5" fill="white" opacity="0.19"/>
  <circle cx="9112" cy="2445" r="2.5" fill="white" opacity="0.14"/>
  <circle cx="9445" cy="2089" r="2.5" fill="white" opacity="0.22"/>
  <circle cx="9778" cy="2312" r="2.5" fill="white" opacity="0.17"/>

  <circle cx="289" cy="3112" r="2.5" fill="white" opacity="0.15"/>
  <circle cx="634" cy="3378" r="2.5" fill="white" opacity="0.20"/>
  <circle cx="978" cy="3123" r="2.5" fill="white" opacity="0.13"/>
  <circle cx="1334" cy="3445" r="2.5" fill="white" opacity="0.18"/>
  <circle cx="1589" cy="3189" r="2.5" fill="white" opacity="0.15"/>
  <circle cx="1945" cy="3412" r="2.5" fill="white" opacity="0.21"/>
  <circle cx="2234" cy="3067" r="2.5" fill="white" opacity="0.16"/>
  <circle cx="2578" cy="3312" r="2.5" fill="white" opacity="0.19"/>
  <circle cx="2901" cy="3156" r="2.5" fill="white" opacity="0.14"/>
  <circle cx="3256" cy="3445" r="2.5" fill="white" opacity="0.22"/>
  <circle cx="3534" cy="3089" r="2.5" fill="white" opacity="0.17"/>
  <circle cx="3901" cy="3345" r="2.5" fill="white" opacity="0.15"/>
  <circle cx="4212" cy="3200" r="2.5" fill="white" opacity="0.20"/>
  <circle cx="4567" cy="3412" r="2.5" fill="white" opacity="0.13"/>
  <circle cx="4878" cy="3067" r="2.5" fill="white" opacity="0.18"/>
  <circle cx="5234" cy="3289" r="2.5" fill="white" opacity="0.15"/>
  <circle cx="5545" cy="3456" r="2.5" fill="white" opacity="0.21"/>
  <circle cx="5901" cy="3112" r="2.5" fill="white" opacity="0.16"/>
  <circle cx="6212" cy="3356" r="2.5" fill="white" opacity="0.19"/>
  <circle cx="6567" cy="3200" r="2.5" fill="white" opacity="0.14"/>
  <circle cx="6878" cy="3434" r="2.5" fill="white" opacity="0.22"/>
  <circle cx="7234" cy="3089" r="2.5" fill="white" opacity="0.17"/>
  <circle cx="7545" cy="3312" r="2.5" fill="white" opacity="0.15"/>
  <circle cx="7901" cy="3156" r="2.5" fill="white" opacity="0.20"/>
  <circle cx="8212" cy="3400" r="2.5" fill="white" opacity="0.13"/>
  <circle cx="8567" cy="3045" r="2.5" fill="white" opacity="0.18"/>
  <circle cx="8878" cy="3289" r="2.5" fill="white" opacity="0.15"/>
  <circle cx="9234" cy="3456" r="2.5" fill="white" opacity="0.21"/>
  <circle cx="9567" cy="3112" r="2.5" fill="white" opacity="0.16"/>
  <circle cx="9878" cy="3345" r="2.5" fill="white" opacity="0.19"/>

  <circle cx="145" cy="4145" r="2.5" fill="white" opacity="0.14"/>
  <circle cx="512" cy="4412" r="2.5" fill="white" opacity="0.21"/>
  <circle cx="823" cy="4156" r="2.5" fill="white" opacity="0.16"/>
  <circle cx="1178" cy="4378" r="2.5" fill="white" opacity="0.19"/>
  <circle cx="1489" cy="4223" r="2.5" fill="white" opacity="0.14"/>
  <circle cx="1845" cy="4456" r="2.5" fill="white" opacity="0.22"/>
  <circle cx="2134" cy="4089" r="2.5" fill="white" opacity="0.17"/>
  <circle cx="2489" cy="4334" r="2.5" fill="white" opacity="0.15"/>
  <circle cx="2801" cy="4178" r="2.5" fill="white" opacity="0.20"/>
  <circle cx="3156" cy="4412" r="2.5" fill="white" opacity="0.13"/>
  <circle cx="3467" cy="4067" r="2.5" fill="white" opacity="0.18"/>
  <circle cx="3823" cy="4312" r="2.5" fill="white" opacity="0.15"/>
  <circle cx="4134" cy="4178" r="2.5" fill="white" opacity="0.21"/>
  <circle cx="4489" cy="4434" r="2.5" fill="white" opacity="0.16"/>
  <circle cx="4801" cy="4089" r="2.5" fill="white" opacity="0.19"/>
  <circle cx="5156" cy="4312" r="2.5" fill="white" opacity="0.14"/>
  <circle cx="5467" cy="4456" r="2.5" fill="white" opacity="0.22"/>
  <circle cx="5823" cy="4112" r="2.5" fill="white" opacity="0.17"/>
  <circle cx="6134" cy="4356" r="2.5" fill="white" opacity="0.15"/>
  <circle cx="6489" cy="4200" r="2.5" fill="white" opacity="0.20"/>
  <circle cx="6801" cy="4434" r="2.5" fill="white" opacity="0.13"/>
  <circle cx="7156" cy="4089" r="2.5" fill="white" opacity="0.18"/>
  <circle cx="7467" cy="4312" r="2.5" fill="white" opacity="0.15"/>
  <circle cx="7823" cy="4178" r="2.5" fill="white" opacity="0.21"/>
  <circle cx="8134" cy="4412" r="2.5" fill="white" opacity="0.16"/>
  <circle cx="8489" cy="4067" r="2.5" fill="white" opacity="0.19"/>
  <circle cx="8801" cy="4289" r="2.5" fill="white" opacity="0.14"/>
  <circle cx="9156" cy="4456" r="2.5" fill="white" opacity="0.22"/>
  <circle cx="9467" cy="4112" r="2.5" fill="white" opacity="0.17"/>
  <circle cx="9823" cy="4334" r="2.5" fill="white" opacity="0.15"/>

  <circle cx="267" cy="5178" r="2.5" fill="white" opacity="0.20"/>
  <circle cx="623" cy="5445" r="2.5" fill="white" opacity="0.13"/>
  <circle cx="934" cy="5189" r="2.5" fill="white" opacity="0.18"/>
  <circle cx="1289" cy="5412" r="2.5" fill="white" opacity="0.15"/>
  <circle cx="1601" cy="5256" r="2.5" fill="white" opacity="0.21"/>
  <circle cx="1956" cy="5489" r="2.5" fill="white" opacity="0.16"/>
  <circle cx="2245" cy="5134" r="2.5" fill="white" opacity="0.19"/>
  <circle cx="2601" cy="5356" r="2.5" fill="white" opacity="0.14"/>
  <circle cx="2912" cy="5201" r="2.5" fill="white" opacity="0.22"/>
  <circle cx="3267" cy="5456" r="2.5" fill="white" opacity="0.17"/>
  <circle cx="3578" cy="5112" r="2.5" fill="white" opacity="0.15"/>
  <circle cx="3934" cy="5334" r="2.5" fill="white" opacity="0.20"/>
  <circle cx="4245" cy="5178" r="2.5" fill="white" opacity="0.13"/>
  <circle cx="4601" cy="5423" r="2.5" fill="white" opacity="0.18"/>
  <circle cx="4912" cy="5067" r="2.5" fill="white" opacity="0.15"/>
  <circle cx="5267" cy="5312" r="2.5" fill="white" opacity="0.21"/>
  <circle cx="5578" cy="5456" r="2.5" fill="white" opacity="0.16"/>
  <circle cx="5934" cy="5112" r="2.5" fill="white" opacity="0.19"/>
  <circle cx="6245" cy="5356" r="2.5" fill="white" opacity="0.14"/>
  <circle cx="6601" cy="5201" r="2.5" fill="white" opacity="0.22"/>
  <circle cx="6912" cy="5434" r="2.5" fill="white" opacity="0.17"/>
  <circle cx="7267" cy="5089" r="2.5" fill="white" opacity="0.15"/>
  <circle cx="7578" cy="5312" r="2.5" fill="white" opacity="0.20"/>
  <circle cx="7934" cy="5178" r="2.5" fill="white" opacity="0.13"/>
  <circle cx="8245" cy="5412" r="2.5" fill="white" opacity="0.18"/>
  <circle cx="8601" cy="5056" r="2.5" fill="white" opacity="0.15"/>
  <circle cx="8912" cy="5289" r="2.5" fill="white" opacity="0.21"/>
  <circle cx="9267" cy="5456" r="2.5" fill="white" opacity="0.16"/>
  <circle cx="9578" cy="5112" r="2.5" fill="white" opacity="0.19"/>
  <circle cx="9912" cy="5334" r="2.5" fill="white" opacity="0.14"/>

  <circle cx="189" cy="6212" r="2.5" fill="white" opacity="0.21"/>
  <circle cx="545" cy="6478" r="2.5" fill="white" opacity="0.16"/>
  <circle cx="856" cy="6223" r="2.5" fill="white" opacity="0.19"/>
  <circle cx="1212" cy="6445" r="2.5" fill="white" opacity="0.14"/>
  <circle cx="1523" cy="6289" r="2.5" fill="white" opacity="0.22"/>
  <circle cx="1878" cy="6512" r="2.5" fill="white" opacity="0.17"/>
  <circle cx="2167" cy="6167" r="2.5" fill="white" opacity="0.15"/>
  <circle cx="2523" cy="6389" r="2.5" fill="white" opacity="0.20"/>
  <circle cx="2834" cy="6234" r="2.5" fill="white" opacity="0.13"/>
  <circle cx="3189" cy="6478" r="2.5" fill="white" opacity="0.18"/>
  <circle cx="3501" cy="6134" r="2.5" fill="white" opacity="0.15"/>
  <circle cx="3856" cy="6356" r="2.5" fill="white" opacity="0.21"/>
  <circle cx="4167" cy="6212" r="2.5" fill="white" opacity="0.16"/>
  <circle cx="4523" cy="6456" r="2.5" fill="white" opacity="0.19"/>
  <circle cx="4834" cy="6089" r="2.5" fill="white" opacity="0.14"/>
  <circle cx="5189" cy="6334" r="2.5" fill="white" opacity="0.22"/>
  <circle cx="5501" cy="6478" r="2.5" fill="white" opacity="0.17"/>
  <circle cx="5856" cy="6123" r="2.5" fill="white" opacity="0.15"/>
  <circle cx="6167" cy="6367" r="2.5" fill="white" opacity="0.20"/>
  <circle cx="6523" cy="6212" r="2.5" fill="white" opacity="0.13"/>
  <circle cx="6834" cy="6456" r="2.5" fill="white" opacity="0.18"/>
  <circle cx="7189" cy="6112" r="2.5" fill="white" opacity="0.15"/>
  <circle cx="7501" cy="6334" r="2.5" fill="white" opacity="0.21"/>
  <circle cx="7856" cy="6178" r="2.5" fill="white" opacity="0.16"/>
  <circle cx="8167" cy="6423" r="2.5" fill="white" opacity="0.19"/>
  <circle cx="8523" cy="6067" r="2.5" fill="white" opacity="0.14"/>
  <circle cx="8834" cy="6289" r="2.5" fill="white" opacity="0.22"/>
  <circle cx="9189" cy="6456" r="2.5" fill="white" opacity="0.17"/>
  <circle cx="9501" cy="6112" r="2.5" fill="white" opacity="0.15"/>
  <circle cx="9856" cy="6334" r="2.5" fill="white" opacity="0.20"/>

  <circle cx="312" cy="7245" r="2.5" fill="white" opacity="0.13"/>
  <circle cx="667" cy="7512" r="2.5" fill="white" opacity="0.18"/>
  <circle cx="978" cy="7256" r="2.5" fill="white" opacity="0.15"/>
  <circle cx="1334" cy="7478" r="2.5" fill="white" opacity="0.21"/>
  <circle cx="1645" cy="7323" r="2.5" fill="white" opacity="0.16"/>
  <circle cx="2001" cy="7545" r="2.5" fill="white" opacity="0.19"/>
  <circle cx="2289" cy="7189" r="2.5" fill="white" opacity="0.14"/>
  <circle cx="2645" cy="7423" r="2.5" fill="white" opacity="0.22"/>
  <circle cx="2956" cy="7267" r="2.5" fill="white" opacity="0.17"/>
  <circle cx="3312" cy="7512" r="2.5" fill="white" opacity="0.15"/>
  <circle cx="3623" cy="7156" r="2.5" fill="white" opacity="0.20"/>
  <circle cx="3978" cy="7389" r="2.5" fill="white" opacity="0.13"/>
  <circle cx="4289" cy="7245" r="2.5" fill="white" opacity="0.18"/>
  <circle cx="4645" cy="7489" r="2.5" fill="white" opacity="0.15"/>
  <circle cx="4956" cy="7134" r="2.5" fill="white" opacity="0.21"/>
  <circle cx="5312" cy="7356" r="2.5" fill="white" opacity="0.16"/>
  <circle cx="5623" cy="7512" r="2.5" fill="white" opacity="0.19"/>
  <circle cx="5978" cy="7156" r="2.5" fill="white" opacity="0.14"/>
  <circle cx="6289" cy="7389" r="2.5" fill="white" opacity="0.22"/>
  <circle cx="6645" cy="7234" r="2.5" fill="white" opacity="0.17"/>
  <circle cx="6956" cy="7478" r="2.5" fill="white" opacity="0.15"/>
  <circle cx="7312" cy="7123" r="2.5" fill="white" opacity="0.20"/>
  <circle cx="7623" cy="7356" r="2.5" fill="white" opacity="0.13"/>
  <circle cx="7978" cy="7212" r="2.5" fill="white" opacity="0.18"/>
  <circle cx="8289" cy="7445" r="2.5" fill="white" opacity="0.15"/>
  <circle cx="8645" cy="7089" r="2.5" fill="white" opacity="0.21"/>
  <circle cx="8956" cy="7312" r="2.5" fill="white" opacity="0.16"/>
  <circle cx="9312" cy="7489" r="2.5" fill="white" opacity="0.19"/>
  <circle cx="9623" cy="7134" r="2.5" fill="white" opacity="0.14"/>
  <circle cx="9956" cy="7356" r="2.5" fill="white" opacity="0.22"/>

  <circle cx="234" cy="8278" r="2.5" fill="white" opacity="0.17"/>
  <circle cx="589" cy="8545" r="2.5" fill="white" opacity="0.15"/>
  <circle cx="901" cy="8289" r="2.5" fill="white" opacity="0.20"/>
  <circle cx="1256" cy="8512" r="2.5" fill="white" opacity="0.13"/>
  <circle cx="1567" cy="8356" r="2.5" fill="white" opacity="0.18"/>
  <circle cx="1923" cy="8578" r="2.5" fill="white" opacity="0.15"/>
  <circle cx="2212" cy="8223" r="2.5" fill="white" opacity="0.21"/>
  <circle cx="2567" cy="8456" r="2.5" fill="white" opacity="0.16"/>
  <circle cx="2878" cy="8301" r="2.5" fill="white" opacity="0.19"/>
  <circle cx="3234" cy="8545" r="2.5" fill="white" opacity="0.14"/>
  <circle cx="3545" cy="8189" r="2.5" fill="white" opacity="0.22"/>
  <circle cx="3901" cy="8423" r="2.5" fill="white" opacity="0.17"/>
  <circle cx="4212" cy="8267" r="2.5" fill="white" opacity="0.15"/>
  <circle cx="4567" cy="8512" r="2.5" fill="white" opacity="0.20"/>
  <circle cx="4878" cy="8156" r="2.5" fill="white" opacity="0.13"/>
  <circle cx="5234" cy="8389" r="2.5" fill="white" opacity="0.18"/>
  <circle cx="5545" cy="8545" r="2.5" fill="white" opacity="0.15"/>
  <circle cx="5901" cy="8189" r="2.5" fill="white" opacity="0.21"/>
  <circle cx="6212" cy="8423" r="2.5" fill="white" opacity="0.16"/>
  <circle cx="6567" cy="8267" r="2.5" fill="white" opacity="0.19"/>
  <circle cx="6878" cy="8512" r="2.5" fill="white" opacity="0.14"/>
  <circle cx="7234" cy="8156" r="2.5" fill="white" opacity="0.22"/>
  <circle cx="7545" cy="8389" r="2.5" fill="white" opacity="0.17"/>
  <circle cx="7901" cy="8234" r="2.5" fill="white" opacity="0.15"/>
  <circle cx="8212" cy="8478" r="2.5" fill="white" opacity="0.20"/>
  <circle cx="8567" cy="8123" r="2.5" fill="white" opacity="0.13"/>
  <circle cx="8878" cy="8356" r="2.5" fill="white" opacity="0.18"/>
  <circle cx="9234" cy="8523" r="2.5" fill="white" opacity="0.15"/>
  <circle cx="9545" cy="8167" r="2.5" fill="white" opacity="0.21"/>
  <circle cx="9901" cy="8389" r="2.5" fill="white" opacity="0.16"/>

  <circle cx="156" cy="9312" r="2.5" fill="white" opacity="0.19"/>
  <circle cx="512" cy="9578" r="2.5" fill="white" opacity="0.14"/>
  <circle cx="823" cy="9323" r="2.5" fill="white" opacity="0.22"/>
  <circle cx="1178" cy="9545" r="2.5" fill="white" opacity="0.17"/>
  <circle cx="1489" cy="9389" r="2.5" fill="white" opacity="0.15"/>
  <circle cx="1845" cy="9612" r="2.5" fill="white" opacity="0.20"/>
  <circle cx="2134" cy="9256" r="2.5" fill="white" opacity="0.13"/>
  <circle cx="2489" cy="9489" r="2.5" fill="white" opacity="0.18"/>
  <circle cx="2801" cy="9334" r="2.5" fill="white" opacity="0.15"/>
  <circle cx="3156" cy="9578" r="2.5" fill="white" opacity="0.21"/>
  <circle cx="3467" cy="9223" r="2.5" fill="white" opacity="0.16"/>
  <circle cx="3823" cy="9456" r="2.5" fill="white" opacity="0.19"/>
  <circle cx="4134" cy="9301" r="2.5" fill="white" opacity="0.14"/>
  <circle cx="4489" cy="9545" r="2.5" fill="white" opacity="0.22"/>
  <circle cx="4801" cy="9189" r="2.5" fill="white" opacity="0.17"/>
  <circle cx="5156" cy="9423" r="2.5" fill="white" opacity="0.15"/>
  <circle cx="5467" cy="9567" r="2.5" fill="white" opacity="0.20"/>
  <circle cx="5823" cy="9212" r="2.5" fill="white" opacity="0.13"/>
  <circle cx="6134" cy="9445" r="2.5" fill="white" opacity="0.18"/>
  <circle cx="6489" cy="9289" r="2.5" fill="white" opacity="0.15"/>
  <circle cx="6801" cy="9534" r="2.5" fill="white" opacity="0.21"/>
  <circle cx="7156" cy="9178" r="2.5" fill="white" opacity="0.16"/>
  <circle cx="7467" cy="9412" r="2.5" fill="white" opacity="0.19"/>
  <circle cx="7823" cy="9256" r="2.5" fill="white" opacity="0.14"/>
  <circle cx="8134" cy="9500" r="2.5" fill="white" opacity="0.22"/>
  <circle cx="8489" cy="9145" r="2.5" fill="white" opacity="0.17"/>
  <circle cx="8801" cy="9378" r="2.5" fill="white" opacity="0.15"/>
  <circle cx="9156" cy="9545" r="2.5" fill="white" opacity="0.20"/>
  <circle cx="9467" cy="9189" r="2.5" fill="white" opacity="0.13"/>
  <circle cx="9823" cy="9423" r="2.5" fill="white" opacity="0.18"/>

  <!-- Medium stars: r=4, moderate opacity — more visible layer -->
  <circle cx="834" cy="456" r="4" fill="#ddeeff" opacity="0.35"/>
  <circle cx="2456" cy="923" r="4" fill="#ddeeff" opacity="0.30"/>
  <circle cx="4123" cy="234" r="4" fill="#ddeeff" opacity="0.38"/>
  <circle cx="5789" cy="712" r="4" fill="#ddeeff" opacity="0.32"/>
  <circle cx="7345" cy="189" r="4" fill="#ddeeff" opacity="0.36"/>
  <circle cx="8912" cy="534" r="4" fill="#ddeeff" opacity="0.29"/>
  <circle cx="312" cy="1678" r="4" fill="#ddeeff" opacity="0.34"/>
  <circle cx="1923" cy="2145" r="4" fill="#ddeeff" opacity="0.31"/>
  <circle cx="3567" cy="1534" r="4" fill="#ddeeff" opacity="0.37"/>
  <circle cx="5134" cy="2867" r="4" fill="#ddeeff" opacity="0.33"/>
  <circle cx="6789" cy="1923" r="4" fill="#ddeeff" opacity="0.35"/>
  <circle cx="8234" cy="2678" r="4" fill="#ddeeff" opacity="0.28"/>
  <circle cx="9678" cy="1345" r="4" fill="#ddeeff" opacity="0.36"/>
  <circle cx="678" cy="3234" r="4" fill="#ddeeff" opacity="0.32"/>
  <circle cx="2289" cy="3789" r="4" fill="#ddeeff" opacity="0.38"/>
  <circle cx="4023" cy="4234" r="4" fill="#ddeeff" opacity="0.30"/>
  <circle cx="5678" cy="3567" r="4" fill="#ddeeff" opacity="0.34"/>
  <circle cx="7234" cy="4823" r="4" fill="#ddeeff" opacity="0.31"/>
  <circle cx="8889" cy="3912" r="4" fill="#ddeeff" opacity="0.37"/>
  <circle cx="1456" cy="4678" r="4" fill="#ddeeff" opacity="0.33"/>
  <circle cx="3112" cy="5234" r="4" fill="#ddeeff" opacity="0.35"/>
  <circle cx="4867" cy="5789" r="4" fill="#ddeeff" opacity="0.29"/>
  <circle cx="6423" cy="5123" r="4" fill="#ddeeff" opacity="0.36"/>
  <circle cx="7978" cy="5678" r="4" fill="#ddeeff" opacity="0.32"/>
  <circle cx="9534" cy="4945" r="4" fill="#ddeeff" opacity="0.38"/>
  <circle cx="823" cy="6345" r="4" fill="#ddeeff" opacity="0.30"/>
  <circle cx="2478" cy="6912" r="4" fill="#ddeeff" opacity="0.34"/>
  <circle cx="4134" cy="6278" r="4" fill="#ddeeff" opacity="0.31"/>
  <circle cx="5689" cy="7534" r="4" fill="#ddeeff" opacity="0.37"/>
  <circle cx="7245" cy="6867" r="4" fill="#ddeeff" opacity="0.33"/>
  <circle cx="8901" cy="7423" r="4" fill="#ddeeff" opacity="0.35"/>
  <circle cx="1267" cy="7978" r="4" fill="#ddeeff" opacity="0.29"/>
  <circle cx="2923" cy="8534" r="4" fill="#ddeeff" opacity="0.36"/>
  <circle cx="4578" cy="7867" r="4" fill="#ddeeff" opacity="0.32"/>
  <circle cx="6134" cy="8623" r="4" fill="#ddeeff" opacity="0.38"/>
  <circle cx="7789" cy="7956" r="4" fill="#ddeeff" opacity="0.30"/>
  <circle cx="9345" cy="8512" r="4" fill="#ddeeff" opacity="0.34"/>
  <circle cx="534" cy="9067" r="4" fill="#ddeeff" opacity="0.31"/>
  <circle cx="2189" cy="9623" r="4" fill="#ddeeff" opacity="0.37"/>
  <circle cx="3845" cy="9178" r="4" fill="#ddeeff" opacity="0.33"/>
  <circle cx="5401" cy="9734" r="4" fill="#ddeeff" opacity="0.35"/>
  <circle cx="6956" cy="9289" r="4" fill="#ddeeff" opacity="0.29"/>
  <circle cx="8512" cy="9845" r="4" fill="#ddeeff" opacity="0.36"/>
  <circle cx="9956" cy="9178" r="4" fill="#ddeeff" opacity="0.32"/>

  <!-- Bright accent stars: r=6, clearly visible -->
  <circle cx="1678" cy="834" r="6" fill="#eef4ff" opacity="0.55"/>
  <circle cx="4512" cy="1567" r="6" fill="#eef4ff" opacity="0.50"/>
  <circle cx="7234" cy="623" r="6" fill="#eef4ff" opacity="0.58"/>
  <circle cx="9123" cy="2034" r="6" fill="#eef4ff" opacity="0.52"/>
  <circle cx="2345" cy="3456" r="6" fill="#eef4ff" opacity="0.56"/>
  <circle cx="5678" cy="2789" r="6" fill="#eef4ff" opacity="0.49"/>
  <circle cx="8012" cy="3234" r="6" fill="#eef4ff" opacity="0.54"/>
  <circle cx="1012" cy="5123" r="6" fill="#eef4ff" opacity="0.51"/>
  <circle cx="3678" cy="4567" r="6" fill="#eef4ff" opacity="0.57"/>
  <circle cx="6345" cy="5912" r="6" fill="#eef4ff" opacity="0.48"/>
  <circle cx="8789" cy="4678" r="6" fill="#eef4ff" opacity="0.53"/>
  <circle cx="2012" cy="6789" r="6" fill="#eef4ff" opacity="0.55"/>
  <circle cx="4678" cy="7234" r="6" fill="#eef4ff" opacity="0.50"/>
  <circle cx="7345" cy="6512" r="6" fill="#eef4ff" opacity="0.58"/>
  <circle cx="9789" cy="7123" r="6" fill="#eef4ff" opacity="0.52"/>
  <circle cx="1345" cy="8456" r="6" fill="#eef4ff" opacity="0.56"/>
  <circle cx="3912" cy="9012" r="6" fill="#eef4ff" opacity="0.49"/>
  <circle cx="6578" cy="8345" r="6" fill="#eef4ff" opacity="0.54"/>
  <circle cx="8923" cy="9567" r="6" fill="#eef4ff" opacity="0.51"/>
  <circle cx="5234" cy="9956" r="6" fill="#eef4ff" opacity="0.57"/>
</svg>
